<?xml version="1.0" encoding="UTF-8" standalone="no"?>
<!-- Created with Inkscape (http://www.inkscape.org/) -->

<svg
   xmlns:dc="http://purl.org/dc/elements/1.1/"
   xmlns:cc="http://creativecommons.org/ns#"
   xmlns:rdf="http://www.w3.org/1999/02/22-rdf-syntax-ns#"
   xmlns:svg="http://www.w3.org/2000/svg"
   xmlns="http://www.w3.org/2000/svg"
   xmlns:sodipodi="http://sodipodi.sourceforge.net/DTD/sodipodi-0.dtd"
   xmlns:inkscape="http://www.inkscape.org/namespaces/inkscape"
   width="327.07422"
   height="63.571339"
   id="svg2"
   version="1.1"
   inkscape:version="0.48.4 r9939"
   sodipodi:docname="logo-full.svg">
  <defs
     id="defs4">
    <clipPath
       clipPathUnits="userSpaceOnUse"
       id="clipPath4753">
      <rect
         transform="matrix(0.64791903,-0.76170922,0.76170922,0.64791903,0,0)"
         y="75.68853"
         x="7.7513561"
         height="31.952129"
         width="29.551968"
         id="rect4755"
         style="fill:#039be5;fill-opacity:1;fill-rule:nonzero;stroke:none" />
    </clipPath>
  </defs>
  <sodipodi:namedview
     id="base"
     pagecolor="#ffffff"
     bordercolor="#666666"
     borderopacity="1.0"
     inkscape:pageopacity="0.0"
     inkscape:pageshadow="2"
     inkscape:zoom="1"
     inkscape:cx="146.9576"
     inkscape:cy="37.537762"
     inkscape:document-units="px"
     inkscape:current-layer="layer1"
     showgrid="false"
     fit-margin-left="1"
     fit-margin-top="1"
     fit-margin-bottom="1"
     fit-margin-right="1"
     inkscape:window-width="1366"
     inkscape:window-height="705"
     inkscape:window-x="-8"
     inkscape:window-y="-8"
     inkscape:window-maximized="1" />
  <metadata
     id="metadata7">
    <rdf:RDF>
      <cc:Work
         rdf:about="">
        <dc:format>image/svg+xml</dc:format>
        <dc:type
           rdf:resource="http://purl.org/dc/dcmitype/StillImage" />
        <dc:title />
      </cc:Work>
    </rdf:RDF>
  </metadata>
  <g
     inkscape:label="Layer 1"
     inkscape:groupmode="layer"
     id="layer1"
     transform="translate(-74.148407,-422.27406)">
    <g
       style="font-size:45.44504547px;font-style:normal;font-variant:normal;font-weight:normal;font-stretch:normal;line-height:125%;letter-spacing:-1.41000009px;word-spacing:0px;fill:#7c7878;fill-opacity:1;stroke:none;font-family:Oxygen;-inkscape-font-specification:Oxygen"
       id="text2985"
       transform="translate(-7.7840531,-0.10217423)">
      <g
         style="font-size:40px;letter-spacing:0px;font-family:Oxygen;-inkscape-font-specification:Oxygen"
         id="text3009">
        <path
           d="m 161.99106,464.15213 c -0.0391,-12.9427 -0.0586,-20.0781 -0.0586,-21.40625 l 2.10938,0 0.3125,3.28125 c 0.62499,-1.06769 1.55924,-1.94659 2.80273,-2.63672 1.24348,-0.69008 2.56184,-1.03513 3.95508,-1.03515 3.42447,2e-5 5.5729,1.34767 6.44531,4.04296 1.52342,-2.69529 3.92576,-4.04294 7.20704,-4.04296 2.34372,2e-5 4.06572,0.66733 5.16601,2.00195 1.10023,1.33465 1.65036,3.32358 1.65039,5.9668 l 0,13.82812 -2.42187,0 0,-10.46875 c -3e-5,-0.98957 -0.013,-1.81639 -0.0391,-2.48047 -0.0261,-0.66405 -0.0879,-1.3867 -0.18554,-2.16797 -0.0977,-0.78123 -0.24743,-1.41925 -0.44922,-1.91406 -0.20185,-0.49477 -0.46552,-0.96352 -0.79102,-1.40625 -0.32555,-0.44269 -0.74221,-0.76821 -1.25,-0.97656 -0.50784,-0.20832 -1.10679,-0.31248 -1.79687,-0.3125 -1.64065,2e-5 -3.03062,0.48504 -4.16992,1.45508 -1.13935,0.97007 -1.93036,2.334 -2.37305,4.09179 0.026,1.32814 0.0586,2.35679 0.0977,3.08594 l 0,11.09375 -2.40235,0 0,-10.89844 c -10e-6,-1.10676 -0.0326,-2.06704 -0.0977,-2.88086 -0.0651,-0.81378 -0.19533,-1.61131 -0.39063,-2.39257 -0.19533,-0.78124 -0.459,-1.41926 -0.79101,-1.91407 -0.33205,-0.49477 -0.77476,-0.89191 -1.32813,-1.1914 -0.5534,-0.29946 -1.21421,-0.4492 -1.98242,-0.44922 -1.77085,2e-5 -3.25196,0.47202 -4.44336,1.41601 -1.19141,0.94403 -1.9629,2.22984 -2.31445,3.85743 -0.026,0.53386 -0.0391,1.29558 -0.0391,2.28515 l 0,12.16797 z"
           style="font-weight:300;text-align:start;writing-mode:lr-tb;text-anchor:start;fill-opacity:0.86666667;font-family:Oxygen;-inkscape-font-specification:Oxygen Light"
           id="path3782"
           inkscape:connector-curvature="0" />
        <path
           d="m 197.42075,464.15213 0,-21.40625 2.4414,0 0,21.40625 z m 0,-25.78125 0,-3.28125 2.42187,0 0,3.28125 z"
           style="font-weight:300;text-align:start;writing-mode:lr-tb;text-anchor:start;fill-opacity:0.86666667;font-family:Oxygen;-inkscape-font-specification:Oxygen Light"
           id="path3784"
           inkscape:connector-curvature="0" />
        <path
           d="m 214.7645,464.62088 c -2.07033,0 -3.8672,-0.50781 -5.39063,-1.52344 -1.52344,-1.01562 -2.65625,-2.34049 -3.39844,-3.97461 -0.74219,-1.6341 -1.11328,-3.45376 -1.11328,-5.45898 0,-1.53645 0.22135,-2.98176 0.66406,-4.33594 0.44271,-1.35415 1.07096,-2.55206 1.88477,-3.59375 0.8138,-1.04165 1.86197,-1.86521 3.14453,-2.4707 1.28254,-0.60545 2.71158,-0.90818 4.28711,-0.9082 1.02863,2e-5 2.05402,0.13674 3.07617,0.41015 1.02212,0.27346 1.78058,0.59898 2.27539,0.97656 l -0.76172,1.81641 c -1.34116,-0.75519 -2.9297,-1.13279 -4.76562,-1.13281 -2.22657,2e-5 -3.99089,0.84312 -5.29297,2.52929 -1.30209,1.68622 -1.95313,3.92254 -1.95312,6.70899 -1e-5,2.66928 0.64778,4.82748 1.94336,6.47461 1.29556,1.64714 3.06314,2.4707 5.30273,2.4707 1.56249,0 3.24217,-0.39062 5.03906,-1.17187 l 0.3711,1.73828 c -0.612,0.45573 -1.40627,0.81054 -2.38282,1.06445 -0.97657,0.25391 -1.95313,0.38086 -2.92968,0.38086 z"
           style="font-weight:300;text-align:start;writing-mode:lr-tb;text-anchor:start;fill-opacity:0.86666667;font-family:Oxygen;-inkscape-font-specification:Oxygen Light"
           id="path3786"
           inkscape:connector-curvature="0" />
        <path
           d="m 224.7059,464.15213 c -0.026,-12.56509 -0.0391,-19.7005 -0.0391,-21.40625 l 1.99219,0 0.15625,4.21875 c 0.76822,-1.27602 1.74478,-2.31769 2.92968,-3.125 1.18489,-0.80727 2.42187,-1.21092 3.71094,-1.21094 0.53384,2e-5 1.10676,0.0456 1.71875,0.13672 l -0.17578,2.01172 c -0.46876,-0.0781 -0.96355,-0.11717 -1.48437,-0.11719 -1.80991,2e-5 -3.33009,0.71291 -4.56055,2.13867 -1.23048,1.4258 -1.84571,3.11525 -1.8457,5.06836 l 0,12.28516 z"
           style="font-weight:300;text-align:start;writing-mode:lr-tb;text-anchor:start;fill-opacity:0.86666667;font-family:Oxygen;-inkscape-font-specification:Oxygen Light"
           id="path3788"
           inkscape:connector-curvature="0" />
        <path
           d="m 247.5184,462.68729 c 1.56249,0 2.88085,-0.41341 3.95508,-1.24024 1.0742,-0.82682 1.85545,-1.91731 2.34375,-3.27148 0.48826,-1.35416 0.7324,-2.91015 0.73242,-4.66797 -2e-5,-2.7604 -0.58595,-4.98045 -1.75781,-6.66016 -1.17189,-1.67967 -2.95574,-2.51951 -5.35156,-2.51953 -1.56251,2e-5 -2.89389,0.41994 -3.99414,1.25977 -1.10027,0.83986 -1.90431,1.94012 -2.41211,3.30078 -0.50782,1.36069 -0.76173,2.91993 -0.76172,4.67773 -1e-5,2.66928 0.62174,4.85678 1.86523,6.5625 1.24348,1.70573 3.0371,2.5586 5.38086,2.5586 z m -0.17578,1.93359 c -1.94011,0 -3.6491,-0.48828 -5.12695,-1.46484 -1.47787,-0.97656 -2.60417,-2.30143 -3.37891,-3.97461 -0.77474,-1.67317 -1.16211,-3.56445 -1.16211,-5.67383 0,-1.58853 0.22461,-3.06314 0.67383,-4.42383 0.44922,-1.36066 1.09049,-2.53904 1.92383,-3.53516 0.83333,-0.99607 1.86848,-1.77732 3.10547,-2.34375 1.23697,-0.56638 2.61066,-0.84958 4.12109,-0.8496 2.0052,2e-5 3.74347,0.49155 5.21484,1.4746 1.47134,0.9831 2.57485,2.30471 3.31055,3.96485 0.73566,1.66017 1.1035,3.55144 1.10352,5.67383 -2e-5,2.13542 -0.37763,4.03646 -1.13282,5.70312 -0.75522,1.66667 -1.88152,2.99154 -3.3789,3.97461 -1.49741,0.98307 -3.25522,1.47461 -5.27344,1.47461 z"
           style="font-weight:300;text-align:start;writing-mode:lr-tb;text-anchor:start;fill-opacity:0.86666667;font-family:Oxygen;-inkscape-font-specification:Oxygen Light"
           id="path3790"
           inkscape:connector-curvature="0" />
        <path
           d="m 267.65512,464.62088 c -2.01823,0 -3.63282,-0.50781 -4.84375,-1.52344 -1.21094,-1.01562 -1.81641,-2.46744 -1.81641,-4.35547 0,-1.11978 0.24089,-2.09309 0.72266,-2.91992 0.48177,-0.82681 1.18164,-1.49738 2.09961,-2.01172 0.91796,-0.51431 1.96614,-0.9147 3.14453,-1.20117 1.17838,-0.28645 2.54882,-0.48827 4.11133,-0.60547 1.66665,-0.10415 2.90363,-0.18879 3.71094,-0.2539 l 0,-2.38282 c -2e-5,-1.6406 -0.37437,-2.87433 -1.12305,-3.70117 -0.74871,-0.8268 -1.94988,-1.24021 -3.60352,-1.24023 -2.26563,2e-5 -4.38151,0.54038 -6.34765,1.62109 -0.0521,-0.13019 -0.17253,-0.41339 -0.36133,-0.84961 -0.18881,-0.43618 -0.32227,-0.77146 -0.40039,-1.00586 0.80729,-0.52081 1.86197,-0.95701 3.16406,-1.30859 1.30208,-0.35154 2.57812,-0.52732 3.82813,-0.52734 2.56509,2e-5 4.40753,0.55015 5.52734,1.65039 1.11977,1.10028 1.67967,3.05014 1.67969,5.84961 l 0,14.29687 -1.89453,0 c -0.0651,-0.29948 -0.15952,-0.89193 -0.28321,-1.77734 -0.12371,-0.88542 -0.18556,-1.34115 -0.18554,-1.36719 -1.6797,2.40885 -4.056,3.61328 -7.12891,3.61328 z m 0.0781,-1.93359 c 1.66665,0 3.14777,-0.49154 4.44336,-1.47461 1.29555,-0.98307 2.14516,-2.347 2.54882,-4.0918 l 0,-3.65234 c -1.87501,0.15626 -2.81902,0.23438 -2.83203,0.23437 -3.17709,0.28647 -5.38412,0.8073 -6.62109,1.5625 -1.23699,0.75522 -1.85547,1.92709 -1.85547,3.51563 0,1.30208 0.39388,2.27865 1.18164,2.92968 0.78775,0.65105 1.83268,0.97657 3.13477,0.97657 z"
           style="font-weight:300;text-align:start;writing-mode:lr-tb;text-anchor:start;fill-opacity:0.86666667;font-family:Oxygen;-inkscape-font-specification:Oxygen Light"
           id="path3792"
           inkscape:connector-curvature="0" />
        <path
           d="m 286.24887,474.09354 -0.29297,-2.16797 4.53125,0 c 1.00259,-10e-6 1.88801,-0.0879 2.65625,-0.26367 0.76822,-0.17579 1.416,-0.40366 1.94336,-0.6836 0.52733,-0.27995 0.97655,-0.67058 1.34766,-1.17187 0.37107,-0.50131 0.66079,-0.99936 0.86914,-1.49414 0.20831,-0.4948 0.36782,-1.13607 0.47851,-1.92383 0.11066,-0.78776 0.17902,-1.51042 0.20508,-2.16797 0.026,-0.65755 0.0391,-1.48763 0.0391,-2.49023 -1e-5,0.14323 -0.013,0.11067 -0.0391,-0.0977 -0.0651,-0.89844 -0.0977,-1.34765 -0.0976,-1.34766 -0.82033,1.23698 -1.79038,2.19076 -2.91016,2.86133 -1.11981,0.67057 -2.48699,1.00586 -4.10156,1.00586 -1.27605,0 -2.43816,-0.22786 -3.48633,-0.68359 -1.04818,-0.45573 -1.90756,-1.04818 -2.57813,-1.77735 -0.67057,-0.72916 -1.23372,-1.56249 -1.68945,-2.5 -0.45573,-0.93749 -0.78125,-1.87174 -0.97656,-2.80273 -0.19532,-0.93098 -0.29297,-1.85221 -0.29297,-2.76367 0,-1.14583 0.0944,-2.23632 0.2832,-3.27149 0.1888,-1.03514 0.51758,-2.04751 0.98633,-3.03711 0.46875,-0.98956 1.05468,-1.84568 1.75781,-2.56836 0.70312,-0.72263 1.60807,-1.30206 2.71485,-1.73828 1.10676,-0.43617 2.35676,-0.65427 3.75,-0.65429 1.36717,2e-5 2.57485,0.2702 3.62304,0.81054 1.04817,0.54039 2.02147,1.40302 2.91993,2.58789 l 0.23437,-3.00781 2.14844,0 0,19.84375 c -2e-5,0.85938 -0.01,1.55273 -0.0293,2.08008 -0.0196,0.52734 -0.0977,1.24349 -0.23437,2.14844 -0.13674,0.90494 -0.32554,1.64713 -0.56641,2.22656 -0.2409,0.57942 -0.60874,1.2207 -1.10352,1.92383 -0.4948,0.70311 -1.09051,1.2565 -1.7871,1.66015 -0.69664,0.40364 -1.58856,0.74869 -2.67579,1.03516 -1.08725,0.28645 -2.32097,0.42968 -3.70117,0.42969 z m 4.94141,-11.91407 c 0.95051,1e-5 1.80988,-0.15299 2.57812,-0.45898 0.76822,-0.30599 1.40298,-0.70963 1.9043,-1.21094 0.50128,-0.5013 0.92446,-1.09049 1.26953,-1.76758 0.34504,-0.67707 0.58918,-1.37694 0.73242,-2.09961 0.14321,-0.72264 0.21483,-1.46809 0.21485,-2.23632 l 0,-2.22657 c -2e-5,-1.01561 -0.12372,-1.97264 -0.3711,-2.87109 -0.24741,-0.89842 -0.62827,-1.7285 -1.14258,-2.49023 -0.51433,-0.7617 -1.22071,-1.36392 -2.11914,-1.80664 -0.89845,-0.44269 -1.94011,-0.66405 -3.125,-0.66407 -0.96355,2e-5 -1.83269,0.18557 -2.60742,0.55664 -0.77475,0.37112 -1.40951,0.86265 -1.9043,1.47461 -0.49479,0.612 -0.91146,1.32814 -1.25,2.14844 -0.33854,0.82033 -0.57617,1.65692 -0.71289,2.50977 -0.13672,0.85287 -0.20508,1.72852 -0.20507,2.62695 -10e-6,0.79428 0.0618,1.56576 0.18554,2.31445 0.1237,0.74871 0.34505,1.50717 0.66407,2.27539 0.319,0.76824 0.7259,1.43555 1.2207,2.00196 0.49478,0.56641 1.14257,1.02864 1.94336,1.38671 0.80077,0.35808 1.70897,0.53712 2.72461,0.53711 z"
           style="font-weight:300;text-align:start;writing-mode:lr-tb;text-anchor:start;fill-opacity:0.86666667;font-family:Oxygen;-inkscape-font-specification:Oxygen Light"
           id="path3794"
           inkscape:connector-curvature="0" />
        <path
           d="m 314.51059,464.62088 c -2.95574,0 -5.30274,-0.98958 -7.04102,-2.96875 -1.73828,-1.97916 -2.60742,-4.66145 -2.60742,-8.04687 0,-3.26822 0.84961,-5.944 2.54883,-8.02735 1.69921,-2.08331 3.89648,-3.15753 6.5918,-3.22265 2.513,2e-5 4.53123,0.89845 6.05468,2.69531 1.52342,1.79689 2.28514,4.20574 2.28516,7.22656 -2e-5,0.1172 -0.003,0.35483 -0.01,0.71289 -0.007,0.35808 -0.01,0.60874 -0.01,0.75195 l -14.90234,0 c 0.026,2.74741 0.69009,4.92514 1.99218,6.53321 1.30208,1.60807 3.02083,2.41211 5.15625,2.41211 1.39322,0 2.60416,-0.16276 3.63282,-0.48828 1.02863,-0.32552 2.10284,-0.78776 3.22265,-1.38672 l 0.41016,1.8164 c -2.16148,1.32813 -4.60288,1.99219 -7.32422,1.99219 z m -6.99219,-12.83203 12.1875,0 c -10e-6,-2.3828 -0.51434,-4.20897 -1.54297,-5.47852 -1.02866,-1.26951 -2.44142,-1.90427 -4.23828,-1.90429 -1.82292,2e-5 -3.29428,0.6771 -4.41406,2.03125 -1.1198,1.35418 -1.78386,3.13803 -1.99219,5.35156 z"
           style="font-weight:300;text-align:start;writing-mode:lr-tb;text-anchor:start;fill-opacity:0.86666667;font-family:Oxygen;-inkscape-font-specification:Oxygen Light"
           id="path3796"
           inkscape:connector-curvature="0" />
        <path
           d="m 327.16684,464.15213 0,-21.40625 2.10937,0 0.33204,3.30078 c 0.76822,-1.14581 1.80012,-2.0475 3.0957,-2.70508 1.29556,-0.65753 2.69205,-0.9863 4.18945,-0.98632 2.46092,2e-5 4.27082,0.6771 5.42969,2.03125 1.15883,1.35418 1.73826,3.51564 1.73828,6.48437 l 0,13.28125 -2.44141,0 0,-14.375 c -0.0651,-1.90103 -0.46876,-3.26821 -1.21093,-4.10156 -0.74221,-0.83332 -1.95965,-1.24998 -3.65235,-1.25 -1.94011,2e-5 -3.5254,0.4883 -4.75586,1.46484 -1.23047,0.97658 -2.00195,2.2396 -2.31445,3.78906 -0.0521,0.612 -0.0781,1.25002 -0.0781,1.91407 l 0,12.55859 z"
           style="font-weight:300;text-align:start;writing-mode:lr-tb;text-anchor:start;fill-opacity:0.86666667;font-family:Oxygen;-inkscape-font-specification:Oxygen Light"
           id="path3798"
           inkscape:connector-curvature="0" />
        <path
           d="m 357.75278,464.60135 c -2.85157,0 -5.07488,-0.98958 -6.66992,-2.96875 -1.59506,-1.97916 -2.39258,-4.71354 -2.39258,-8.20313 0,-3.28123 0.82356,-5.94725 2.4707,-7.99804 1.64713,-2.05076 3.81835,-3.07615 6.51367,-3.07617 1.32811,2e-5 2.65624,0.28647 3.98438,0.85937 1.32811,0.57294 2.33722,1.46486 3.02734,2.67578 l 0,-0.64453 0,-10.80078 2.34375,-0.21484 0,29.92187 -2.01172,0 -0.35156,-3.22266 c -0.74221,1.21094 -1.74806,2.12566 -3.01758,2.74414 -1.26954,0.61849 -2.56837,0.92774 -3.89648,0.92774 z m -0.0586,-1.91406 c 1.21093,0 2.27213,-0.22136 3.1836,-0.66407 0.91144,-0.4427 1.64061,-1.0677 2.1875,-1.875 0.54686,-0.80728 0.95376,-1.73502 1.2207,-2.7832 0.26691,-1.04817 0.40037,-2.21028 0.40039,-3.48633 -2e-5,-6.36717 -2.34376,-9.55076 -7.03125,-9.55078 -1.10678,2e-5 -2.08334,0.26369 -2.92969,0.79102 -0.84636,0.52736 -1.51367,1.23699 -2.00195,2.1289 -0.48829,0.89195 -0.84961,1.862 -1.08398,2.91016 -0.23438,1.04819 -0.35157,2.1517 -0.35157,3.31055 0,1.00261 0.0716,1.94336 0.21485,2.82226 0.14322,0.87892 0.3776,1.7155 0.70312,2.50977 0.32552,0.79427 0.72916,1.47461 1.21094,2.04101 0.48176,0.56641 1.08723,1.01563 1.81641,1.34766 0.72915,0.33203 1.54947,0.49805 2.46093,0.49805 z"
           style="font-weight:300;text-align:start;writing-mode:lr-tb;text-anchor:start;fill-opacity:0.86666667;font-family:Oxygen;-inkscape-font-specification:Oxygen Light"
           id="path3800"
           inkscape:connector-curvature="0" />
        <path
           d="m 378.5145,464.62088 c -2.01824,0 -3.63282,-0.50781 -4.84375,-1.52344 -1.21094,-1.01562 -1.81641,-2.46744 -1.81641,-4.35547 0,-1.11978 0.24088,-2.09309 0.72266,-2.91992 0.48176,-0.82681 1.18163,-1.49738 2.09961,-2.01172 0.91796,-0.51431 1.96613,-0.9147 3.14453,-1.20117 1.17837,-0.28645 2.54881,-0.48827 4.11132,-0.60547 1.66666,-0.10415 2.90364,-0.18879 3.71094,-0.2539 l 0,-2.38282 c -10e-6,-1.6406 -0.37436,-2.87433 -1.12304,-3.70117 -0.74872,-0.8268 -1.94989,-1.24021 -3.60352,-1.24023 -2.26563,2e-5 -4.38152,0.54038 -6.34766,1.62109 -0.0521,-0.13019 -0.17253,-0.41339 -0.36132,-0.84961 -0.18881,-0.43618 -0.32227,-0.77146 -0.4004,-1.00586 0.80729,-0.52081 1.86198,-0.95701 3.16407,-1.30859 1.30207,-0.35154 2.57811,-0.52732 3.82812,-0.52734 2.56509,2e-5 4.40754,0.55015 5.52735,1.65039 1.11977,1.10028 1.67967,3.05014 1.67968,5.84961 l 0,14.29687 -1.89453,0 c -0.0651,-0.29948 -0.15952,-0.89193 -0.2832,-1.77734 -0.12371,-0.88542 -0.18556,-1.34115 -0.18555,-1.36719 -1.6797,2.40885 -4.056,3.61328 -7.1289,3.61328 z m 0.0781,-1.93359 c 1.66666,0 3.14778,-0.49154 4.44336,-1.47461 1.29556,-0.98307 2.14517,-2.347 2.54883,-4.0918 l 0,-3.65234 c -1.87502,0.15626 -2.81902,0.23438 -2.83203,0.23437 -3.1771,0.28647 -5.38412,0.8073 -6.6211,1.5625 -1.23698,0.75522 -1.85547,1.92709 -1.85547,3.51563 0,1.30208 0.39388,2.27865 1.18165,2.92968 0.78775,0.65105 1.83267,0.97657 3.13476,0.97657 z"
           style="font-weight:300;text-align:start;writing-mode:lr-tb;text-anchor:start;fill-opacity:0.86666667;font-family:Oxygen;-inkscape-font-specification:Oxygen Light"
           id="path3802"
           inkscape:connector-curvature="0" />
      </g>
    </g>
    <g
       id="g3835"
       transform="matrix(0.7795835,0,0,0.7795835,87.953461,-323.42465)">
      <g
         transform="matrix(1.1071659,0,0,1.1071659,-20.531176,961.03767)"
         id="g3789">
        <path
           inkscape:connector-curvature="0"
           style="fill:#03a9f4;fill-opacity:1;stroke:#03a9f4;stroke-width:4.63430548;stroke-linecap:round;stroke-linejoin:round;stroke-miterlimit:4;stroke-opacity:1;stroke-dasharray:none;stroke-dashoffset:0.2"
           d="m 40,6.0005824 c -10.982062,0 -20.376295,6.7923156 -24.206888,16.3909376 -0.04725,-6.81e-4 -0.09416,0 -0.14156,0 -5.316364,0 -9.6261298,4.301863 -9.6261298,9.608481 0,5.306616 4.3097658,9.608481 9.6261298,9.608481 0.0474,0 0.09431,6.82e-4 0.14156,0 C 19.623705,51.207104 29.017938,57.999419 40,57.999419 c 10.982063,0 20.376294,-6.792315 24.206886,-16.390937 0.04725,6.82e-4 0.09416,0 0.14156,0 5.316365,0 9.62613,-4.301865 9.62613,-9.608481 0,-5.306618 -4.309765,-9.608481 -9.62613,-9.608481 -0.0474,0 -0.09431,-6.81e-4 -0.14156,0 C 60.376294,12.792898 50.982063,6.0005824 40,6.0005824 z"
           id="path4329-4-0-8-8" />
        <path
           inkscape:connector-curvature="0"
           style="fill:#039be5;fill-opacity:1;stroke:none"
           d="m 74.85516,10.911846 c -8.409367,0 -15.602875,5.226962 -18.5361,12.61349 -0.03618,-5.24e-4 -0.0721,0 -0.108398,0 -4.070935,0 -7.37108,3.310458 -7.37108,7.394115 0,4.083656 3.300145,7.394115 7.37108,7.394115 0.0363,0 0.07222,5.25e-4 0.108398,0 2.933225,7.386528 10.126733,12.61349 18.5361,12.61349 8.409367,0 15.602874,-5.226962 18.536098,-12.61349 0.03618,5.25e-4 0.0721,0 0.108398,0 4.070935,0 7.371084,-3.310459 7.371084,-7.394115 0,-4.083657 -3.300149,-7.394115 -7.371084,-7.394115 -0.0363,0 -0.07222,-5.24e-4 -0.108398,0 C 90.458034,16.138808 83.264527,10.911846 74.85516,10.911846 z"
           id="path4329-4-0-8-8-1"
           mask="none"
           transform="matrix(1.3059321,0,0,1.2994768,-56.875021,-6.7700402)"
           clip-path="url(#clipPath4753)" />
        <path
           sodipodi:nodetypes="sssssscccss"
           id="path3158"
           d="m 39.999999,15.106803 c -5.042875,0 -9.130915,4.072499 -9.130915,9.09631 0,5.02381 4.08804,9.096423 9.130915,9.096423 5.042875,0 9.130915,-4.072613 9.130915,-9.096423 0,-5.023811 -4.08804,-9.09631 -9.130915,-9.09631 z m 0,18.192733 c -5.042875,0 -14.34858,4.072498 -14.34858,9.096312 0,6.527643 0.04001,6.497349 2.608617,6.497349 l 23.479496,0 c 2.542328,0 2.609047,-0.01689 2.609047,-6.497349 0,-5.023814 -9.305705,-9.096312 -14.34858,-9.096312 z"
           style="fill:#ffffff;fill-opacity:1;stroke:#ffffff;stroke-width:2.31715274;stroke-linejoin:round;stroke-miterlimit:4;stroke-opacity:1;stroke-dasharray:none"
           inkscape:connector-curvature="0" />
      </g>
    </g>
  </g>
</svg>
