<?xml version="1.0" encoding="UTF-8" standalone="no"?>
<!-- Created with Inkscape (http://www.inkscape.org/) -->

<svg
   xmlns:dc="http://purl.org/dc/elements/1.1/"
   xmlns:cc="http://creativecommons.org/ns#"
   xmlns:rdf="http://www.w3.org/1999/02/22-rdf-syntax-ns#"
   xmlns:svg="http://www.w3.org/2000/svg"
   xmlns="http://www.w3.org/2000/svg"
   xmlns:sodipodi="http://sodipodi.sourceforge.net/DTD/sodipodi-0.dtd"
   xmlns:inkscape="http://www.inkscape.org/namespaces/inkscape"
   width="200"
   height="200"
   id="svg2"
   version="1.1"
   inkscape:version="0.48.4 r9939"
   sodipodi:docname="hi.svg">
  <defs
     id="defs4">
    <clipPath
       clipPathUnits="userSpaceOnUse"
       id="clipPath4753">
      <rect
         transform="matrix(0.64791903,-0.76170922,0.76170922,0.64791903,0,0)"
         y="75.68853"
         x="7.7513561"
         height="31.952129"
         width="29.551968"
         id="rect4755"
         style="fill:#039be5;fill-opacity:1;fill-rule:nonzero;stroke:none" />
    </clipPath>
  </defs>
  <sodipodi:namedview
     id="base"
     pagecolor="#ffffff"
     bordercolor="#666666"
     borderopacity="1.0"
     inkscape:pageopacity="0.0"
     inkscape:pageshadow="2"
     inkscape:zoom="1.8671875"
     inkscape:cx="-13.43854"
     inkscape:cy="99.282213"
     inkscape:document-units="px"
     inkscape:current-layer="layer1"
     showgrid="true"
     inkscape:window-width="1366"
     inkscape:window-height="705"
     inkscape:window-x="-8"
     inkscape:window-y="-8"
     inkscape:window-maximized="1">
    <inkscape:grid
       type="xygrid"
       id="grid4391"
       empspacing="5"
       visible="true"
       enabled="true"
       snapvisiblegridlinesonly="true" />
  </sodipodi:namedview>
  <metadata
     id="metadata7">
    <rdf:RDF>
      <cc:Work
         rdf:about="">
        <dc:format>image/svg+xml</dc:format>
        <dc:type
           rdf:resource="http://purl.org/dc/dcmitype/StillImage" />
        <dc:title />
      </cc:Work>
    </rdf:RDF>
  </metadata>
  <g
     inkscape:label="Layer 1"
     inkscape:groupmode="layer"
     id="layer1"
     transform="translate(0,-852.36218)">
    <path
       style="fill:#03a9f4;fill-opacity:1;stroke:none"
       d="m 19.238261,902.63923 161.517449,0 c 5.24999,0 9.47652,4.21288 9.47652,9.4459 l 0,80.87725 c 0,5.2332 -3.87533,8.95122 -9.47652,9.44602 l -7.02348,9.9538 -8.13919,-9.9538 -146.35478,0 c -5.249992,0 -9.4765205,-4.21282 -9.4765205,-9.44602 l 0,-80.87725 c 0,-5.23302 4.2265285,-9.4459 9.4765215,-9.4459 z"
       id="rect3768"
       inkscape:connector-curvature="0"
       sodipodi:nodetypes="sssscccssss" />
    <g
       id="g4377"
       transform="matrix(1.0529468,0,0,1.0495451,-0.42658971,-74.001046)">
      <g
         style="font-size:80.50570679px;font-style:normal;font-variant:normal;font-weight:bold;font-stretch:normal;text-align:start;line-height:125%;letter-spacing:0px;word-spacing:0px;writing-mode:lr-tb;text-anchor:start;fill:#0288d1;fill-opacity:1;stroke:#0288d1;stroke-width:4.09039021;stroke-miterlimit:4;stroke-opacity:1;font-family:Dancing Script;-inkscape-font-specification:Dancing Script Bold"
         id="text4352-7">
        <path
           d="m 27.251824,1011.9603 c 1.180914,-7.6212 3.97188,-18.16754 8.372908,-31.63922 -2.951494,0.32269 -4.695848,0.48403 -5.233067,0.484 -9e-6,-3.0055 2.334805,-4.99145 7.004448,-5.95783 l 6.682603,-19.48274 c 0.643668,-1.93266 0.965514,-3.22086 0.965538,-3.86461 -2.4e-5,-0.75174 -0.348895,-1.12763 -1.046614,-1.12769 -2.039197,6e-5 -4.091884,1.66416 -6.158067,4.9923 -2.066216,3.32825 -3.099316,6.30675 -3.099303,8.93553 -1.3e-5,0.85829 0.267782,2.06624 0.803386,3.62383 -4.238876,4e-5 -6.358307,-1.74431 -6.358299,-5.23306 -8e-6,-3.54272 1.945397,-7.04494 5.836221,-10.50668 3.890797,-3.46163 7.580556,-5.19247 11.069289,-5.19253 3.005506,6e-5 4.508271,1.4496 4.5083,4.34861 -2.9e-5,0.96477 -0.214593,2.14487 -0.643692,3.5403 l -5.876759,19.32304 c 0.858232,-0.054 2.199665,-0.081 4.024302,-0.0811 4.830115,3e-5 9.526768,0.21459 14.089973,0.64369 3.220054,-10.84117 5.849688,-18.62361 7.888911,-23.34734 1.287334,-3.00548 3.219226,-4.50824 5.795684,-4.5083 -2.845072,7.78331 -5.662245,17.20283 -8.451527,28.25856 0.429081,3e-5 1.488797,0.0402 3.17915,0.12039 1.690254,0.0803 2.964533,0.12041 3.822841,0.12038 -2.468355,2.46833 -5.125014,3.70248 -7.969986,3.70246 -3.112038,13.04255 -4.668035,22.56938 -4.667994,28.58038 -4.1e-5,1.3955 0.134266,2.818 0.402921,4.2676 -2.738595,-0.2687 -4.604153,-0.9263 -5.596679,-1.9729 -0.992598,-1.0466 -1.488879,-2.8851 -1.488845,-5.5156 -3.4e-5,-4.61556 1.931859,-13.04169 5.795684,-25.27841 -8.748016,0.0541 -14.946616,0.24244 -18.595816,0.56508 -0.05407,0.16054 -0.242019,0.79071 -0.563845,1.89054 -0.321866,1.09986 -1.18053,3.82409 -2.575996,8.17267 l -5.151992,16.66472 c -0.53724,1.7706 -1.490084,3.1255 -2.858532,4.0649 -1.368468,0.9393 -2.670182,1.409 -3.905146,1.409 z"
           style="line-height:125%;fill:#0288d1;stroke:#0288d1;font-family:Dancing Script;-inkscape-font-specification:Dancing Script Bold"
           id="path4428" />
        <path
           d="m 73.794188,999.96351 c 10e-7,-3.54111 1.019588,-7.00239 3.058765,-10.38383 2.039172,-3.38141 4.239679,-5.07212 6.601526,-5.07214 0.643683,2e-5 1.475732,0.21458 2.496149,0.64369 0.321016,-2.46828 1.192783,-4.50746 2.615305,-6.11753 1.422495,-1.61002 3.421951,-2.41504 5.998373,-2.41507 2.147256,3e-5 3.730687,0.60359 4.750299,1.81069 1.019565,1.20715 1.529355,2.77707 1.529385,4.70976 -3e-5,3.70329 -1.771408,8.26482 -5.314146,13.68459 0.643671,0.32268 1.395463,0.48401 2.255379,0.484 1.501923,10e-6 3.111557,-0.49627 4.828917,-1.48884 1.7173,-0.99256 3.03212,-2.50924 3.94446,-4.55007 l 1.44953,1.04661 c -1.1269,2.57642 -2.64277,4.53575 -4.54761,5.87799 -1.9049,1.34226 -3.877735,2.01334 -5.918525,2.01334 -1.233354,0 -2.574787,-0.24154 -4.024302,-0.72473 -4.455083,5.36733 -8.936353,8.05103 -13.443824,8.05103 -2.255382,0 -3.865838,-0.7247 -4.831375,-2.1743 -0.965537,-1.4495 -1.448305,-3.2479 -1.448306,-5.39519 z m 6.439375,-0.24077 c -5e-6,2.46836 0.9123,3.70246 2.736919,3.70246 1.932704,0 4.509106,-1.9049 7.729216,-5.71461 -3.059596,-2.68449 -4.669643,-6.62936 -4.830146,-11.83459 -1.020417,0.53724 -2.214849,2.40239 -3.5833,5.59545 -1.368465,3.19308 -2.052694,5.94351 -2.052689,8.25129 z m 10.225365,-12.47828 c -1.6e-5,1.23498 0.214548,2.64398 0.643692,4.22699 0.429111,1.58303 0.992546,2.80367 1.690305,3.66192 3.113613,-4.45342 4.670429,-8.45151 4.670452,-11.99429 -2.3e-5,-2.36182 -0.751815,-3.54274 -2.255379,-3.54276 -1.126889,2e-5 -2.200118,0.7514 -3.219688,2.25415 -1.019604,1.50278 -1.529398,3.30078 -1.529382,5.39399 z"
           style="line-height:125%;fill:#0288d1;stroke:#0288d1;font-family:Dancing Script;-inkscape-font-specification:Dancing Script Bold"
           id="path4430" />
        <path
           d="m 104.79704,998.83828 c 0,-4.93823 1.70382,-11.63393 5.11145,-20.08712 3.40763,-8.45313 7.17765,-15.85967 11.31006,-22.21965 4.13239,-6.35988 7.19197,-9.53985 9.17876,-9.53991 0.91228,6e-5 1.69027,0.71132 2.33399,2.13377 0.64367,1.42256 0.99254,2.85776 1.04662,4.30561 -3e-5,2.46999 -0.92585,5.97262 -2.77746,10.5079 -1.85166,4.53536 -4.52183,9.3524 -8.01052,14.45113 -3.48873,5.09878 -7.13795,9.15092 -10.94768,12.15644 -0.59129,3.16606 -0.88693,5.60733 -0.88692,7.32384 -10e-6,0.0541 -10e-6,0.13513 0,0.24322 -10e-6,3.70329 1.15389,5.55489 3.46169,5.55489 1.87865,0 3.8781,-1.248 5.99837,-3.7442 2.12023,-2.49614 4.01241,-5.51477 5.67653,-9.05591 l 1.93107,1.04662 c -2.36186,4.88256 -4.96488,8.67919 -7.80906,11.38989 -2.84421,2.7107 -5.7961,4.0661 -8.85568,4.0661 -4.50748,0 -6.76122,-2.8442 -6.76122,-8.53262 z m 8.6923,-13.28413 c 4.29454,-4.66961 8.13253,-10.31869 11.51397,-16.94728 3.38141,-6.6285 5.07212,-11.39149 5.07215,-14.28897 -0.69777,5e-5 -2.06664,1.55645 -4.10661,4.66922 -2.04001,3.11286 -4.26754,7.17851 -6.6826,12.19698 -2.41509,5.01853 -4.34739,9.80854 -5.79691,14.37005 z"
           style="line-height:125%;fill:#0288d1;stroke:#0288d1;font-family:Dancing Script;-inkscape-font-specification:Dancing Script Bold"
           id="path4432" />
        <path
           d="m 122.19638,1001.6563 c 0,-3.11365 1.10025,-6.57574 3.30076,-10.38631 2.20051,-3.81054 5.11227,-7.08428 8.73529,-9.82122 3.62301,-2.73689 7.20508,-4.10535 10.74622,-4.10538 2.36182,3e-5 4.33425,0.6036 5.9173,1.8107 1.58299,1.20715 2.3745,2.75004 2.37453,4.62868 -3e-5,2.46832 -1.529,3.75652 -4.58692,3.86461 1.93105,0.58966 2.89659,1.36765 2.89662,2.334 -3e-5,0.6437 -0.76452,2.26726 -2.29346,4.87068 -1.529,2.60344 -2.29349,4.54884 -2.29346,5.83624 -3e-5,1.9327 0.805,2.8991 2.41507,2.8991 1.50192,0 3.4203,-1.0467 5.75515,-3.1399 2.33478,-2.09321 4.60203,-5.23305 6.80176,-9.41951 l 1.53061,1.53061 c -1.98517,4.45344 -4.45388,8.0355 -7.40615,10.7462 -2.95233,2.7107 -5.93124,4.0661 -8.93675,4.0661 -2.1473,0 -3.79788,-0.7113 -4.95176,-2.1338 -1.15391,-1.4225 -1.73086,-3.046 -1.73084,-4.8707 -2.41427,2.8991 -4.48006,5.0194 -6.19738,6.3608 -1.71734,1.3414 -3.54236,2.0121 -5.47506,2.0121 -1.87867,0 -3.44859,-0.617 -4.70976,-1.8512 -1.26118,-1.2341 -1.89177,-2.9781 -1.89177,-5.2318 z m 6.43937,0.4004 c 0,1.7182 0.61749,2.5773 1.85246,2.5773 0.69774,0 1.43561,-0.2015 2.21361,-0.6044 0.77799,-0.4029 1.62315,-1.0065 2.53546,-1.8107 l 2.49615,-2.41508 c 0.80583,-0.80584 1.71813,-1.85245 2.73692,-3.13984 l 2.41507,-3.05877 2.33646,-3.13984 1.93107,-2.6583 c 0.16049,-0.26696 0.37506,-0.40044 0.64369,-0.40046 l 0.16215,0 0.1597,0.0786 c 0.26859,-0.85824 0.4029,-1.8508 0.40292,-2.97769 -2e-5,-2.79095 -1.12689,-4.18643 -3.38061,-4.18646 -3.54278,3e-5 -7.17931,2.63007 -10.90959,7.89014 -3.73031,5.26011 -5.59546,9.87528 -5.59546,13.84548 z"
           style="line-height:125%;fill:#0288d1;stroke:#0288d1;font-family:Dancing Script;-inkscape-font-specification:Dancing Script Bold"
           id="path4434" />
      </g>
      <g
         style="font-size:80.50570679px;font-style:normal;font-variant:normal;font-weight:bold;font-stretch:normal;text-align:start;line-height:125%;letter-spacing:0px;word-spacing:0px;writing-mode:lr-tb;text-anchor:start;fill:#ffffff;fill-opacity:1;stroke:none;font-family:Dancing Script;-inkscape-font-specification:Dancing Script Bold"
         id="text4352">
        <path
           d="m 26.031493,1009.0355 c 1.180914,-7.6212 3.97188,-18.16754 8.372908,-31.63922 -2.951494,0.32269 -4.695848,0.48402 -5.233068,0.484 -8e-6,-3.00551 2.334805,-4.99145 7.004449,-5.95784 l 6.682603,-19.48273 c 0.643668,-1.93267 0.965514,-3.22087 0.965537,-3.86461 -2.3e-5,-0.75174 -0.348894,-1.12764 -1.046613,-1.12769 -2.039197,5e-5 -4.091884,1.66415 -6.158067,4.9923 -2.066217,3.32824 -3.099316,6.30675 -3.099303,8.93552 -1.3e-5,0.8583 0.267782,2.06624 0.803386,3.62384 -4.238876,4e-5 -6.358307,-1.74432 -6.3583,-5.23307 -7e-6,-3.54272 1.945398,-7.04494 5.836222,-10.50667 3.890797,-3.46163 7.580556,-5.19247 11.069289,-5.19253 3.005506,6e-5 4.508271,1.44959 4.5083,4.3486 -2.9e-5,0.96478 -0.214593,2.14488 -0.643692,3.54031 l -5.876759,19.32304 c 0.858232,-0.054 2.199665,-0.081 4.024302,-0.0811 4.830115,3e-5 9.526768,0.2146 14.089973,0.6437 3.220053,-10.84118 5.849688,-18.62362 7.888911,-23.34735 1.287334,-3.00547 3.219226,-4.50824 5.795683,-4.5083 -2.845071,7.78332 -5.662244,17.20283 -8.451526,28.25857 0.429081,3e-5 1.488797,0.0402 3.179149,0.12038 1.690255,0.0803 2.964534,0.12042 3.822842,0.12039 -2.468355,2.46833 -5.125014,3.70248 -7.969986,3.70245 -3.112038,13.04256 -4.668035,22.56935 -4.667995,28.58039 -4e-5,1.3955 0.134267,2.818 0.402922,4.2676 -2.738595,-0.2687 -4.604153,-0.9263 -5.59668,-1.9729 -0.992597,-1.0466 -1.488878,-2.8851 -1.488844,-5.5156 -3.4e-5,-4.61557 1.931859,-13.0417 5.795683,-25.27841 -8.748016,0.0541 -14.946615,0.24243 -18.595815,0.56507 -0.05407,0.16054 -0.24202,0.79072 -0.563845,1.89054 -0.321866,1.09987 -1.18053,3.82409 -2.575996,8.17268 l -5.151992,16.66472 c -0.537241,1.7706 -1.490084,3.1255 -2.858532,4.0649 -1.368468,0.9393 -2.670182,1.4089 -3.905146,1.409 z"
           style="line-height:125%;fill:#ffffff;font-family:Dancing Script;-inkscape-font-specification:Dancing Script Bold"
           id="path4437" />
        <path
           d="m 72.573857,997.03871 c 10e-7,-3.54112 1.019588,-7.00239 3.058764,-10.38383 2.039173,-3.38141 4.23968,-5.07213 6.601527,-5.07215 0.643683,2e-5 1.475732,0.21459 2.496149,0.6437 0.321015,-2.46829 1.192783,-4.50746 2.615305,-6.11753 1.422495,-1.61003 3.421951,-2.41505 5.998373,-2.41508 2.147256,3e-5 3.730687,0.60359 4.750299,1.81069 1.019562,1.20716 1.529356,2.77707 1.529382,4.70976 -2.6e-5,3.7033 -1.771405,8.26482 -5.314143,13.6846 0.64367,0.32267 1.395462,0.484 2.255378,0.484 1.501923,0 3.111561,-0.49628 4.828919,-1.48885 1.7173,-0.99255 3.03212,-2.50924 3.94445,-4.55007 l 1.44954,1.04662 c -1.1269,2.57641 -2.64277,4.53574 -4.54761,5.87799 -1.9049,1.34225 -3.877736,2.01338 -5.918526,2.01338 -1.233355,0 -2.574787,-0.24159 -4.024302,-0.72477 -4.455083,5.36733 -8.936353,8.05103 -13.443824,8.05103 -2.255382,0 -3.865838,-0.7247 -4.831375,-2.1743 -0.965537,-1.4495 -1.448305,-3.24791 -1.448306,-5.39519 z m 6.439375,-0.24077 c -5e-6,2.46831 0.9123,3.70246 2.736919,3.70246 1.932703,0 4.509106,-1.90487 7.729216,-5.71461 -3.059597,-2.6845 -4.669644,-6.62936 -4.830146,-11.8346 -1.020417,0.53725 -2.214849,2.4024 -3.5833,5.59545 -1.368465,3.19309 -2.052694,5.94351 -2.052689,8.2513 z m 10.225365,-12.47829 c -1.6e-5,1.23499 0.214548,2.64399 0.643692,4.22699 0.429111,1.58304 0.992545,2.80368 1.690305,3.66192 3.113613,-4.45341 4.670429,-8.45151 4.670451,-11.99429 -2.2e-5,-2.36181 -0.751814,-3.54273 -2.255378,-3.54276 -1.12689,3e-5 -2.200118,0.75141 -3.219688,2.25415 -1.019604,1.50279 -1.529398,3.30078 -1.529382,5.39399 z"
           style="line-height:125%;fill:#ffffff;font-family:Dancing Script;-inkscape-font-specification:Dancing Script Bold"
           id="path4439" />
        <path
           d="m 103.57671,995.91348 c 0,-4.93824 1.70382,-11.63394 5.11145,-20.08712 3.40763,-8.45313 7.17765,-15.85967 11.31006,-22.21965 4.13239,-6.35989 7.19197,-9.53985 9.17875,-9.53991 0.91228,6e-5 1.69028,0.71131 2.334,2.13376 0.64366,1.42257 0.99254,2.85777 1.04661,4.30561 -2e-5,2.47 -0.92584,5.97263 -2.77745,10.50791 -1.85166,4.53536 -4.52184,9.3524 -8.01053,14.45112 -3.48872,5.09879 -7.13794,9.15093 -10.94767,12.15644 -0.59129,3.16606 -0.88693,5.60734 -0.88692,7.32384 -1e-5,0.0541 -1e-5,0.13513 0,0.24323 -1e-5,3.70328 1.15389,5.55489 3.46169,5.55489 1.87865,0 3.8781,-1.24805 5.99837,-3.7442 2.12023,-2.49614 4.01241,-5.51478 5.67653,-9.05591 l 1.93107,1.04661 c -2.36186,4.88257 -4.96488,8.6792 -7.80906,11.3899 -2.84422,2.7107 -5.7961,4.0661 -8.85568,4.0661 -4.50748,0 -6.76122,-2.8442 -6.76122,-8.53262 z m 8.6923,-13.28413 c 4.29454,-4.66961 8.13253,-10.3187 11.51397,-16.94728 3.38141,-6.62851 5.07212,-11.3915 5.07215,-14.28898 -0.69777,5e-5 -2.06664,1.55646 -4.10661,4.66923 -2.04001,3.11285 -4.26755,7.17851 -6.6826,12.19697 -2.41509,5.01854 -4.34739,9.80855 -5.79691,14.37006 z"
           style="line-height:125%;fill:#ffffff;font-family:Dancing Script;-inkscape-font-specification:Dancing Script Bold"
           id="path4441" />
        <path
           d="m 120.97605,998.73147 c 0,-3.11363 1.10025,-6.57572 3.30076,-10.38629 2.20051,-3.81054 5.11227,-7.08427 8.73529,-9.82121 3.62301,-2.73689 7.20508,-4.10535 10.74622,-4.10538 2.36182,3e-5 4.33425,0.60359 5.91729,1.81069 1.583,1.20715 2.37451,2.75005 2.37454,4.62869 -3e-5,2.46832 -1.529,3.75652 -4.58692,3.8646 1.93105,0.58966 2.89659,1.36766 2.89661,2.334 -2e-5,0.64371 -0.76451,2.26727 -2.29345,4.87068 -1.529,2.60344 -2.29349,4.54885 -2.29346,5.83623 -3e-5,1.93271 0.805,2.89902 2.41507,2.89902 1.50192,0 3.4203,-1.04656 5.75514,-3.13979 2.33479,-2.09322 4.60204,-5.23306 6.80176,-9.41953 l 1.53061,1.53062 c -1.98516,4.45343 -4.45387,8.0355 -7.40614,10.7462 -2.95233,2.7107 -5.93124,4.0661 -8.93675,4.0661 -2.1473,0 -3.79788,-0.7113 -4.95176,-2.1338 -1.15391,-1.4225 -1.73086,-3.04605 -1.73084,-4.87067 -2.41427,2.89907 -4.48006,5.01937 -6.19738,6.36077 -1.71734,1.3414 -3.54236,2.0121 -5.47507,2.0121 -1.87866,0 -3.44858,-0.617 -4.70976,-1.8512 -1.26117,-1.2341 -1.89176,-2.9781 -1.89176,-5.23183 z m 6.43937,0.40047 c 0,1.71816 0.61748,2.57726 1.85246,2.57726 0.69774,0 1.43561,-0.2015 2.21361,-0.6044 0.77799,-0.4029 1.62314,-1.0065 2.53546,-1.81071 l 2.49615,-2.41508 c 0.80583,-0.80583 1.71813,-1.85245 2.73692,-3.13984 l 2.41507,-3.05876 2.33645,-3.13984 1.93108,-2.6583 c 0.16049,-0.26696 0.37505,-0.40045 0.64369,-0.40047 l 0.16215,0 0.1597,0.0786 c 0.26859,-0.85824 0.4029,-1.8508 0.40292,-2.97769 -2e-5,-2.79094 -1.12689,-4.18643 -3.38061,-4.18645 -3.54278,2e-5 -7.17931,2.63007 -10.9096,7.89014 -3.7303,5.2601 -5.59545,9.87527 -5.59545,13.84552 z"
           style="line-height:125%;fill:#ffffff;font-family:Dancing Script;-inkscape-font-specification:Dancing Script Bold"
           id="path4443" />
      </g>
    </g>
  </g>
</svg>
