<?xml version="1.0" encoding="UTF-8" standalone="no"?>
<!-- Created with Inkscape (http://www.inkscape.org/) -->

<svg
   xmlns:dc="http://purl.org/dc/elements/1.1/"
   xmlns:cc="http://creativecommons.org/ns#"
   xmlns:rdf="http://www.w3.org/1999/02/22-rdf-syntax-ns#"
   xmlns:svg="http://www.w3.org/2000/svg"
   xmlns="http://www.w3.org/2000/svg"
   xmlns:sodipodi="http://sodipodi.sourceforge.net/DTD/sodipodi-0.dtd"
   xmlns:inkscape="http://www.inkscape.org/namespaces/inkscape"
   width="80"
   height="80"
   id="svg3794"
   version="1.1"
   inkscape:version="0.48.4 r9939"
   inkscape:export-filename="C:\Users\Diego\Git\microagenda\mobile\www\icon.png"
   inkscape:export-xdpi="144"
   inkscape:export-ydpi="144"
   sodipodi:docname="icon.svg">
  <defs
     id="defs3796">
    <clipPath
       clipPathUnits="userSpaceOnUse"
       id="clipPath4753">
      <rect
         transform="matrix(0.64791903,-0.76170922,0.76170922,0.64791903,0,0)"
         y="75.68853"
         x="7.7513561"
         height="31.952129"
         width="29.551968"
         id="rect4755"
         style="fill:#039be5;fill-opacity:1;fill-rule:nonzero;stroke:none" />
    </clipPath>
  </defs>
  <sodipodi:namedview
     id="base"
     pagecolor="#ffffff"
     bordercolor="#666666"
     borderopacity="1.0"
     inkscape:pageopacity="0.0"
     inkscape:pageshadow="2"
     inkscape:zoom="2"
     inkscape:cx="41.716281"
     inkscape:cy="53.839034"
     inkscape:document-units="px"
     inkscape:current-layer="layer1"
     showgrid="false"
     inkscape:window-width="1366"
     inkscape:window-height="705"
     inkscape:window-x="-8"
     inkscape:window-y="-8"
     inkscape:window-maximized="1" />
  <metadata
     id="metadata3799">
    <rdf:RDF>
      <cc:Work
         rdf:about="">
        <dc:format>image/svg+xml</dc:format>
        <dc:type
           rdf:resource="http://purl.org/dc/dcmitype/StillImage" />
        <dc:title />
      </cc:Work>
    </rdf:RDF>
  </metadata>
  <g
     inkscape:label="Layer 1"
     inkscape:groupmode="layer"
     id="layer1"
     transform="translate(0,-972.36218)">
    <path
       inkscape:connector-curvature="0"
       style="fill:#03a9f4;fill-opacity:1;stroke:none;stroke-width:4.00000047999999970;stroke-linecap:round;stroke-linejoin:round;stroke-miterlimit:4;stroke-opacity:1;stroke-dasharray:none;stroke-dashoffset:0.20000000000000001"
       d="m 40.000001,983.57651 c -12.158965,0 -22.559939,7.52022 -26.801041,18.14749 -0.05231,-8e-4 -0.104251,0 -0.15673,0 -5.8860973,0 -10.657723,4.7629 -10.657723,10.6382 0,5.8753 4.7716257,10.6382 10.657723,10.6382 0.05248,0 0.104416,7e-4 0.15673,0 4.241102,10.6272 14.642076,18.1474 26.801041,18.1474 12.158966,0 22.559938,-7.5202 26.801039,-18.1474 0.05231,7e-4 0.10425,0 0.15673,0 5.886098,0 10.657723,-4.7629 10.657723,-10.6382 0,-5.8753 -4.771625,-10.6382 -10.657723,-10.6382 -0.05248,0 -0.104417,-8e-4 -0.15673,0 -4.241101,-10.62727 -14.642073,-18.14749 -26.801039,-18.14749 z"
       id="path4329-4-0-8-8" />
    <path
       inkscape:connector-curvature="0"
       style="fill:#039be5;fill-opacity:1;stroke:none"
       d="m 74.85516,10.911846 c -8.409367,0 -15.602875,5.226962 -18.5361,12.61349 -0.03618,-5.24e-4 -0.0721,0 -0.108398,0 -4.070935,0 -7.37108,3.310458 -7.37108,7.394115 0,4.083656 3.300145,7.394115 7.37108,7.394115 0.0363,0 0.07222,5.25e-4 0.108398,0 2.933225,7.386528 10.126733,12.61349 18.5361,12.61349 8.409367,0 15.602874,-5.226962 18.536098,-12.61349 0.03618,5.25e-4 0.0721,0 0.108398,0 4.070935,0 7.371084,-3.310459 7.371084,-7.394115 0,-4.083657 -3.300149,-7.394115 -7.371084,-7.394115 -0.0363,0 -0.07222,-5.24e-4 -0.108398,0 C 90.458034,16.138808 83.264527,10.911846 74.85516,10.911846 z"
       id="path4329-4-0-8-8-1"
       mask="none"
       transform="matrix(1.4458835,0,0,1.4387364,-68.071255,967.69056)"
       clip-path="url(#clipPath4753)" />
    <path
       sodipodi:nodetypes="sssssscccss"
       id="path3158"
       d="m 40,993.65861 c -5.583299,0 -10.109438,4.50893 -10.109438,10.07109 0,5.5622 4.526139,10.0713 10.109438,10.0713 5.583299,0 10.109438,-4.5091 10.109438,-10.0713 0,-5.56216 -4.526139,-10.07109 -10.109438,-10.07109 z m 0,20.14239 c -5.583299,0 -15.886259,4.5089 -15.886259,10.0711 0,7.2272 0.0443,7.1937 2.888172,7.1937 l 25.995698,0 c 2.814778,0 2.888647,-0.019 2.888647,-7.1937 0,-5.5622 -10.302959,-10.0711 -15.886258,-10.0711 z"
       style="fill:#ffffff;fill-opacity:1;stroke:#ffffff;stroke-width:2.00000024;stroke-linejoin:round;stroke-miterlimit:4;stroke-opacity:1;stroke-dasharray:none"
       inkscape:connector-curvature="0" />
  </g>
</svg>
