<?xml version="1.0" encoding="UTF-8" standalone="no"?>
<!-- Created with Inkscape (http://www.inkscape.org/) -->

<svg
   xmlns:dc="http://purl.org/dc/elements/1.1/"
   xmlns:cc="http://creativecommons.org/ns#"
   xmlns:rdf="http://www.w3.org/1999/02/22-rdf-syntax-ns#"
   xmlns:svg="http://www.w3.org/2000/svg"
   xmlns="http://www.w3.org/2000/svg"
   xmlns:sodipodi="http://sodipodi.sourceforge.net/DTD/sodipodi-0.dtd"
   xmlns:inkscape="http://www.inkscape.org/namespaces/inkscape"
   width="200"
   height="200"
   id="svg2"
   version="1.1"
   inkscape:version="0.48.4 r9939"
   sodipodi:docname="New document 1">
  <defs
     id="defs4" />
  <sodipodi:namedview
     id="base"
     pagecolor="#ffffff"
     bordercolor="#666666"
     borderopacity="1.0"
     inkscape:pageopacity="0.0"
     inkscape:pageshadow="2"
     inkscape:zoom="1"
     inkscape:cx="100"
     inkscape:cy="1.175555"
     inkscape:document-units="px"
     inkscape:current-layer="layer1"
     showgrid="false"
     inkscape:window-width="1366"
     inkscape:window-height="705"
     inkscape:window-x="-8"
     inkscape:window-y="-8"
     inkscape:window-maximized="1" />
  <metadata
     id="metadata7">
    <rdf:RDF>
      <cc:Work
         rdf:about="">
        <dc:format>image/svg+xml</dc:format>
        <dc:type
           rdf:resource="http://purl.org/dc/dcmitype/StillImage" />
        <dc:title></dc:title>
      </cc:Work>
    </rdf:RDF>
  </metadata>
  <g
     inkscape:label="Layer 1"
     inkscape:groupmode="layer"
     id="layer1"
     transform="translate(0,-852.36218)">
    <path
       sodipodi:type="arc"
       style="fill:#03a9f4;fill-opacity:1;fill-rule:nonzero;stroke:none"
       id="circle"
       sodipodi:cx="55.5"
       sodipodi:cy="120.5"
       sodipodi:rx="130.5"
       sodipodi:ry="130.5"
       d="m 186,120.5 a 130.5,130.5 0 1 1 -261,0 130.5,130.5 0 1 1 261,0 z"
       transform="matrix(0.76628352,0,0,0.76628352,57.471265,860.02502)"
       inkscape:label="" />
    <path
       style="opacity:0.71153846;fill:#000000;fill-opacity:0.19607843;fill-rule:nonzero;stroke:none"
       d="m 126.74186,885.67013 -55.68677,146.27107 21.9272,19.8496 c 2.44621,0.1792 4.90748,0.2634 7.39942,0.2634 49.42883,0 90.48624,-35.8495 98.56321,-82.9741 z"
       id="shadow"
       inkscape:connector-curvature="0"
       inkscape:label=""
       sodipodi:nodetypes="cccscc" />
    <g
       id="g3892"
       transform="matrix(1.5153142,0,0,1.5153142,-57.53142,-506.10812)">
      <path
         sodipodi:nodetypes="cccccccccccccccccccccc"
         inkscape:connector-curvature="0"
         d="m 91.157056,971.1285 c 0.403065,-0.8913 -7.749002,-5.9741 -9.823344,-8.88631 -0.389728,-0.53353 -1.19281,-3.08248 -4.163574,-17.63686 1.93236,0.1523 6.219945,1.59946 6.774197,3.59542 3.109365,5.7307 2.479605,7.234 5.895686,7.40825 2.860672,0.0401 4.447087,-0.94804 4.950794,-2.71802 0.637044,-2.14508 0.920535,-4.29016 0.585307,-6.7004 -0.133917,-0.80357 -4.352967,-6.13763 -5.454638,-6.69444 -1.286022,-0.1181 -4.383208,4.39549 -7.920238,4.89495 -1.941666,0.0363 -3.420161,-0.4678 -5.053046,-1.51225 12.028732,-10.56059 11.629058,-11.39458 14.085601,-11.30225 1.956688,0.0231 7.802109,6.60057 10.823339,10.54056 -1.4287,-8.84221 -5.047149,-21.64043 -4.610468,-26.5167 -0.207244,-2.50455 1.735621,-5.5424 5.083508,-6.48854 l 7.01226,32.196 c -0.8655,-9.23418 -2.61074,-20.14843 -1.79914,-24.97647 -0.0134,-2.51308 1.15806,-5.39197 4.56897,-6.07699 l 4.15154,30.22435 c -0.17528,-9.31327 -0.15934,-12.87222 0.19042,-17.63581 0.15328,-2.50843 1.63808,-5.0533 5.08691,-5.51062 0.65333,10.96473 0.77634,20.86879 0.88,31.27308 -0.60267,16.96995 -3.96979,20.08745 -5.80312,22.33745"
         style="fill:#ffcc80;fill-opacity:1;stroke:#ffcc80;stroke-width:0.65992916;stroke-linecap:round;stroke-linejoin:round;stroke-miterlimit:4;stroke-opacity:1;stroke-dashoffset:0"
         id="rect3848" />
      <path
         sodipodi:nodetypes="cccc"
         inkscape:connector-curvature="0"
         id="rect3856"
         d="m 86.988323,977.499 0,-6.6388 34.120217,0 0,6.6388"
         style="fill:#eceff1;fill-opacity:1;stroke:#eceff1;stroke-width:0.65992916;stroke-linecap:round;stroke-linejoin:round;stroke-miterlimit:4;stroke-opacity:1;stroke-dashoffset:0" />
      <path
         sodipodi:nodetypes="csssscc"
         inkscape:connector-curvature="0"
         id="rect3853"
         d="m 85.0518,1025.3929 0,-48.5675 c 0,-0.6233 0.50175,-1.125 1.125,-1.125 l 35.75,0 c 0.62325,0 1.125,0.5017 1.125,1.125 l 0,48.5675 c -12.95832,3.4998 -24.863687,3.7802 -38,0 z"
         style="fill:#37474f;fill-opacity:1;stroke:#37474f;stroke-width:0.65992916;stroke-linecap:round;stroke-linejoin:round;stroke-miterlimit:4;stroke-opacity:1;stroke-dashoffset:0" />
    </g>
  </g>
</svg>
